<?xml version="1.0" encoding="UTF-8"?>
<svg id="Layer_1" data-name="Layer 1" xmlns="http://www.w3.org/2000/svg" viewBox="0 0 350 350">
  <defs>
    <style>
      .cls-1 {
        fill: #231f20;
      }

      .cls-2 {
        fill: #b2c4ae;
      }
    </style>
  </defs>
  <circle class="cls-2" cx="175" cy="175" r="175"/>
  <g>
    <path class="cls-1" d="M141.67,207.18c-1.33-.12-3.1-.13-4.63-.12v-77.78c-.14-.14-.26-.31-.37-.48h-4.26c.03-1.53.25-3.68-.49-4.48-1.33,0-3.28.25-4.38-.12.01-1.34.24-3.44-.24-4.36-3.17,0-5.6-.25-8.77-.24,0-1.29.24-3.18-.12-4.24-1.44-.28-3.7-.05-4.99-.36v-4.12h-4.14c-.42-.15-.69-.36-1.46-.36-.91,0-2.76.28-3.41-.12h-.24v-4.12h-4.26v4.12c-.25.05-.23.03-.37.12-1.33,0-3.28-.25-4.38.12,0,1.63.07,3.58-.24,4.85h-4.14v4.12c-.15.41-.36.68-.37,1.45,0,.91.28,2.75-.12,3.39v.24h-4.14c-.02,4.67-.5,8.63-.49,13.33-1.35-.01-3.45-.24-4.38.24,0,3.28-.25,5.82-.24,9.09-1.3,0-3.19-.24-4.26.12-.35,1.84-.24,4.37-.24,6.3,0,.8.22,2.35-.12,2.91v.24h-4.14c0,1.46.07,3.28-.24,4.36-.39,1.34.06,3.38-.12,4.6-.19,1.22.46,3.43-.12,4.36v.24c-1.3,0-3.19-.24-4.26.12-.02,4.75-.38,8.91-.37,13.57-1.3,0-3.19-.24-4.26.12-.01,4.75-.38,8.98-.37,13.81-1.3,0-3.19-.24-4.26.12-.04,2.06-.08,4.12-.12,6.18,0,.77.21,2.26-.12,2.79-.01,2-.39,8.1.24,9.33,3.21,0,5.68.25,8.89.24-.01,1.34-.24,3.44.24,4.36.91.17,3.85-.16,4.51.24h.24c0,1.29-.24,3.18.12,4.24,3.21,0,6.23.03,9.26.36v4.12h29.47c.7,0,1.96-.17,2.44.12.12.04.24.08.36.12.52,2.7.12,6.27.12,9.21v18.17h4.14c.05.25.03.23.12.36v4.24c.21.08.12.02.24.12h12.54c1.76,0,4.34.37,5.85-.12,0-1.51-.05-3.35.24-4.48v-27.38c3.3-.01,5.46-.37,8.77-.36-.03-1.46-.3-3.78.49-4.48v-12.48c0-1.75.37-4.32-.12-5.82-1.29-.25-3.03.01-4.51-.12ZM113.41,202.7h-28.99c-.97,0-2.28.13-3.05-.12,0-1.57-.04-3.35.12-4.72h4.14c.02-4.68.51-8.64.49-13.33,1.3,0,3.19.24,4.26-.12.17-.93-.18-3.93.24-4.6,0-1.39-.27-3.44.12-4.6,1.3,0,3.19.24,4.26-.12.17-.93-.18-3.93.24-4.6-.01-1.36-.26-3.35.12-4.48,1.3,0,3.19.24,4.26-.12.17-.9-.17-3.83.24-4.48,0-1.39-.27-3.44.12-4.6,1.35.01,3.45.24,4.38-.24.01-3.2.25-5.66.24-8.84,1.3,0,3.19.24,4.26-.12.24-1.24-.23-3.12.12-4.48.3-1.16.26-3.06.24-4.6h4.14c-.01.9-.22,3.7.12,4.24v54.16c0,1.75.37,4.32-.12,5.81Z"/>
    <path class="cls-1" d="M58.03,107.89s.04-.03.07-.05c.03-.02.08-.06.14-.1,0,.01,0,.03,0,.04,1.17.39,3.23.13,4.63.12.54.34,3.15-.53,4.06-.54.37-1.1.34-8.96.33-10.29.15-.16.17-.21.24-.48h4.26v-7.75c.77-.8,1.32-1.78,1.66-2.84,1.76-.51,3.07-1.61,3.92-2.98h3.68c.49-.93.26-3.02.24-4.36l1.52-4.97h17.3l-.07,4.97v4.12c1.58,0,3.36.04,4.75.12,1.35.07,2.99-.12,4.14.12h4.82c.41,2.91,2.29,5.57,5.64,6.24.9.36,1.85.55,2.86.55h.39c.34.01.67-.01,1-.05.15.02.3.02.45.02.78.26,1.6.41,2.45.42h.78c.15,0,.31,0,.46-.01-.03,2.13-.06,4.26-.09,6.39,3.21,0,5.68.23,8.89.24.49.93.26,3.02.24,4.36,1.17.39,3.23.13,4.63.12.55.35,3.46.13,4.38.12.49-.93.26-3.02.24-4.36.96-.49,3.13-.26,4.51-.24.12-.1.03-.04.24-.12.04-.04.08-.08.12-.12v-4.6h4.14v-3.41c.23-.19.46-.38.67-.61.3-.27.55-.57.78-.89.14,0,.28.02.43.02.96,0,1.82-.16,2.59-.42.05,0,.1-.02.15-.02.25.03.51.05.77.05h.39c.28.01.55,0,.81-.02.12,0,.24.02.36.02h.78c.5.02.98-.03,1.44-.12.42.07.85.12,1.29.12h1.17c.36.01.7-.01,1.05-.06.3.03.6.06.9.06h.39c.83.03,1.61-.1,2.35-.39h.38c.12,0,.24,0,.36,0,.75.29,1.53.43,2.37.4.17-.02.34-.05.51-.07.34.04.69.07,1.05.07h33.16c6.04,0,8.37-5.7,7.02-10.13.47-.89.69-1.86.66-2.89h19.78c-.02.24-.03.48-.02.73.09.68.18,1.35.27,2.03.29,1.03.78,1.95,1.44,2.77v3.56c8.19.55,17.05.12,25.45.12,14.64,0,29.51.11,43.97.12.5,1.5.12,4.07.12,5.81v12.84c.34.53.14,3.24.12,4.12.74.39,2.23.32,3.48.27.72,4.58.65,9.23,1.14,13.84-.52.8-.26,3.17-.24,4.3h-8.77c.01-1.66.07-3.34-.37-4.48-.39-1.01.09-3.42-.12-4.48h-4.14c-.5-.95-.26-3.12-.24-4.48-.64-.75-.24-3.6-.24-4.85v-13.45c-1.46,0-3.3.07-4.38-.24h-45.06c-1.92,0-4.26-.2-5.97.12-.36,1.06-.13,2.95-.12,4.24h-4.14v-4.12c-1.29-.31-3.55-.09-4.99-.36-.36-1.06-.13-2.95-.12-4.24-1.5,0-3.39.08-4.51-.24-2.96.04-5.93.08-8.89.12-.36,1.06-.13,2.95-.12,4.24-.96.49-3.13.26-4.51.24-.58.86-.39,2.94-.37,4.36-1.07.36-2.96.13-4.26.12-.73.69-3.28.38-4.63.36v4.12c-.18.1-.35.22-.49.36-1.5-.01-3.33-.13-4.63.12v4.12h-4.14v-4.12c-.12-.04-.24-.08-.37-.12-.66-.41-3.6-.08-4.51-.24-.36-1.06-.13-2.95-.12-4.24-1.55,0-3.45.06-4.63-.24-1.37-.35-3.26.14-4.51-.12h-5.48c-4.3.08-8.61.16-12.91.24-.36,1.06-.13,2.95-.12,4.24h-.24c-.65.4-2.49.11-3.41.12-.69.01-.83.24-1.22.36h-4.14v4.12c-.18.1-.35.22-.49.36h-4.26c-.37,1.1-.13,3.03-.12,4.36-1.1.37-3.05.13-4.39.12-.49.93-.26,3.02-.24,4.36-.93.48-3.04.26-4.38.24-.17-.15-.22-.16-.49-.24v-4.12c-3.34.01-5.54-.35-8.89-.36-.36-1.06-.13-2.95-.12-4.24-1.1-.37-3.05-.13-4.38-.12-.74-.8-.51-2.95-.49-4.48-1.49.01-3.39.08-4.51-.24-1.34-.39-3.28.12-4.51-.12-.36-1.06-.13-2.95-.12-4.24-3.37.01-5.64-.35-9.01-.36-.36-1.06-.13-2.95-.12-4.24h-.24c-.98-.6-3.13.15-4.38-.12-1.2-.26-3.05.22-4.38-.12-1.18-.3-3.08-.25-4.63-.24v-4.12h-9.38v4.24c-.12.04-.24.08-.37.12-.53.34-3.26.13-4.14.12-.36,1.06-.13,2.95-.12,4.24-.81.73-2.96.51-4.51.48.01,3.31-.35,5.53-.37,8.84-1.07.36-2.96.13-4.26.12v.24c-.36.58-.12,2.2-.12,3.03,0,1.82-.25,3.72-.24,5.82-1.07.36-2.96.13-4.26.12v.24c-.36.58-.12,2.2-.12,3.03,0,1.82-.25,3.72-.24,5.82-1.07.36-2.96.13-4.26.12v.24c-.34.56-.12,2.11-.12,2.91,0,1.93.05,4.63-.37,6.3h-4.14c.02,4.73-.47,8.72-.49,13.45h-4.14v.24c-.34.56-.12,2.11-.12,2.91,0,1.96.06,4.72-.37,6.42h-4.14c.02,4.62-.35,8.73-.37,13.45-1.07.36-2.96.13-4.26.12,0,1.62.06,3.59-.24,4.85-.33,1.35.14,3.16-.12,4.36-.31,1.45.13,3.3-.12,4.6h-4.14c0,1.62.06,3.59-.24,4.85-.34,1.38.15,3.24-.12,4.48-.32,1.45.03,3.4-.12,4.72h-4.14c0,1.57-.04,3.34-.12,4.72-.08,1.38.13,3.06-.12,4.24-.31,1.44.16,3.31-.12,4.6-.32,1.49.14,3.38-.12,4.72h-4.14v4.36h4.14v.24c.34.54.14,3.34.12,4.24h.24c.66.41,3.6.08,4.51.24.49.93.26,3.02.24,4.36,1.49-.01,3.39-.08,4.51.24,1.34.39,3.28-.12,4.51.12.36,1.06.13,2.95.12,4.24,3.37-.01,5.64.35,9.01.36.36,1.06.13,2.95.12,4.24,1.13.38,3.14.13,4.51.12.7.69,3.3.39,4.63.36v4.12c.12.04.24.08.37.12.43.26,1.55.12,2.19.12h5.36c6.62.04,13.24.08,19.85.12,0,7.19.12,14.58.12,21.93v10.06c.32,1.11.24,2.99.24,4.48h50.79v-4.12h4.26v-.24c.31-.49.12-1.82.12-2.54v-6.18c.04-7.75.08-15.51.12-23.26,1.1-.37,3.05-.13,4.38-.12.57-.36,3.67-.13,4.63-.12.35-.67.24-1.99.24-3.03v-6.42c.34-.53.14-3.24.12-4.12,1.1-.37,3.05-.13,4.38-.12.36,1.06.13,2.95.12,4.24h.24c.49.3,1.83.12,2.56.12,1.79.04,3.57.08,5.36.12,6.36,0,12.99-.22,19.36-.24v-4.12c.12-.04.24-.08.37-.12.67-.42,3.7-.07,4.63-.24.36-1.06.13-2.95.12-4.24h4.14c0,3.15.23,5.57.24,8.72.7.23,1.9.12,2.8.12h94.26c.4-1.19.13-3.3.12-4.72.31-.49.12-1.82.12-2.54v-6.3c-.04-6.14-.08-12.28-.12-18.42.3-1.17.25-3.06.24-4.6,1.42-.01,3.16-.12,4.39.12v4.12c.26.43.12,1.54.12,2.18v18.42c0,2.47-.13,5.25.12,7.51h1.75c-.41.91-.6,1.91-.47,2.95.43,3.58.47,7.17.71,10.74h-53.01c-.06.19-.1.41-.14.64h-9.36v-.64c-24.42,0-49.57,0-73.68,0-.23.69-.12,1.89-.12,2.79v6.06c-.1.12-.04.03-.12.24-.7.23-1.91.12-2.8.12h-6.21c-.4,1.19-.13,3.3-.12,4.72-.16.25-.18.74-.17,1.24v30.85s-44.79-.37-43.91-.37-1.75.13-2.49.37c-1.6-.6-5.67-.23-7.63-.23h-19.73c-.36-1.06-.13-2.95-.12-4.24-.38-.5-.24-1.68-.24-2.54v-29.68c-1.5-.49-4.09-.12-5.85-.12h-12.54c-.67-.42-3.7-.07-4.63-.24v-4.24h-.24c-.58-.36-2.21-.12-3.04-.12-1.82,0-3.64-.25-5.72-.24-.36-1.06-.13-2.95-.12-4.24h-.24c-.65-.4-2.49-.11-3.41-.12-.74,0-.93-.24-1.34-.36h-4.14v-4.12c-1.23-.31-3.15-.25-4.75-.24-.49-.93-.26-3.02-.24-4.36-3.21,0-5.68-.23-8.89-.24-.49-.93-.26-3.02-.24-4.36-1.13-.38-3.14-.13-4.51-.12-.68-.59-3.34-.26-4.51-.24-.37-1.1-.13-3.04-.12-4.36-.45-.72-.12-2.87-.12-3.88,0-3.54.22-6.34.24-9.81h4.14c.32-2.93.24-6.1.24-9.21,0-1.7-.09-3.76.24-5.09h4.14c-.02-6.17.47-11.91.49-17.93h4.14c.15-1.35-.2-3.36.12-4.85.27-1.25-.28-3.23.12-4.6.31-1.08.24-2.91.24-4.36h4.14v-.24c.36-.58.12-2.2.12-3.03,0-1.98-.06-4.71.36-6.42h4.14c-.02-2.73-.22-6.83.37-9.09.36-1.37-.12-3.24.12-4.48h4.14v-.24c.33-.54.12-2.01.12-2.79,0-1.93-.1-4.46.24-6.3,1.07-.36,2.96-.13,4.26-.12v-8.72l-.12-5.21c.98.01,4.27-.07,5.12-.08.36-1.06.13-5.24.12-6.53l-.33-4.97Z"/>
    <path class="cls-1" d="M149.53,285.64h1.11c.51-.49,1.11-.9,1.79-1.23"/>
    <path class="cls-1" d="M210.97,142.73c0-.93.24-3.66-.12-4.24.01-1.45.29-3.82-.24-4.85-1.3,0-3.19.24-4.26-.12.01-.9.22-3.7-.12-4.24v-.24c-.21-.08-.12-.02-.24-.12-1.3,0-3.19.24-4.26-.12.01-.88.22-3.59-.12-4.12v-.24c-.21-.08-.12-.02-.24-.12-1.3,0-3.19.24-4.26-.12.01-1.34.24-3.44-.24-4.36-1.37.01-3.55.25-4.51-.24.01-1.34.24-3.43-.24-4.36-3.17,0-6.27-.05-9.26-.24v-4.12h-4.14v4.12c-.96.1-4.45-.1-4.99.36-1.33,0-3.28-.25-4.38.12.01,1.34.24,3.44-.24,4.36-1.37-.01-3.55-.25-4.51.24.01,1.34.24,3.43-.24,4.36-1.33,0-3.28-.25-4.38.12.01,1.37.25,3.53-.24,4.48-1.33-.01-3.28-.25-4.38.12,0,1.59.06,3.5-.24,4.72h-4.14c0,1.51.05,3.35-.24,4.48v50.64c0,.97-.25,3.88.12,4.48,0,1.36-.26,3.35.12,4.48,1.3,0,3.19-.24,4.26.12.08.21.02.12.12.24,0,1.33-.25,3.26.12,4.36,1.33,0,3.28-.25,4.38.12-.02,1.37-.25,3.53.24,4.48,1.37-.01,3.55-.25,4.51.24,0,1.33-.25,3.26.12,4.36.9-.01,3.72-.22,4.26.12.12.04.24.08.37.12,0,1.29-.24,3.18.12,4.24,3.16,0,6.15.03,9.13.36,0,1.29-.24,3.18.12,4.24.88.01,3.61.22,4.14-.12h.24v-4.12c2.08.01,4.06-.24,5.85-.24.86,0,2.56.25,3.17-.12h.24c0-1.33-.25-3.26.12-4.36.9.01,3.72.22,4.26-.12.12-.04.24-.08.37-.12,0-1.33-.25-3.26.12-4.36,1.37.01,3.55.25,4.51-.24-.01-1.33-.25-3.26.12-4.36,1.37.01,3.55.25,4.51-.24-.01-.9-.22-3.7.12-4.24v-.24h4.26c.27-1.38-.21-3.32.12-4.85.56-2.61.12-7.22.12-10.18v-40.34ZM192.09,184.04h-4.14c-.04,3.07-.08,6.14-.12,9.21-.38,1.21-.37,2.88-.37,4.6-2.26.02-4.19.24-6.21.24-.72,0-2.07.18-2.56-.12-.12-.04-.24-.08-.37-.12,0-1.29.24-3.18-.12-4.24-1.3,0-3.19.24-4.26-.12-.4-2.11-.12-4.94-.12-7.27v-2.18c-.57-2.64-.12-7.3-.12-10.3v-20.84c.04-3.43.08-6.87.12-10.3,0-1.06-.36-3.35.12-4.12.04-.12.08-.24.12-.36,1.3,0,3.19.24,4.26-.12,0-1.29-.24-3.18.12-4.24,3,.04,6.01.08,9.01.12,0,1.72-.03,3.4.37,4.6.04,4.44.08,8.89.12,13.33h4.14v32.23Z"/>
    <path class="cls-1" d="M312.41,152.06c-1.37.01-3.55.25-4.51-.24,0-1.33.25-3.26-.12-4.36h-4.26c-.08-.21-.02-.12-.12-.24.01-1.34.24-3.43-.24-4.36-1.95-.01-7.8-.38-9.01.24.02,1.37.25,3.53-.24,4.48-1.3,0-3.19-.24-4.26.12.02,1.49.2,3.56-.37,4.48h-4.26c.02,1.42.32,3.92-.36,4.72-.02,1.67-.15,3.63.49,4.6h4.26c-.01,1.37-.25,3.53.24,4.48,1.33,0,3.28-.25,4.38.12-.01.9-.22,3.7.12,4.24v.24c1.37.27,3.3.13,4.87.12v4.12h4.14v-4.12c.16-.16.32-.32.49-.48v-4.12c1.68.02,3.64.15,4.63-.48v-4.12h4.14c.14-.14.31-.26.49-.36.02-1.18.37-3.91-.24-4.6.01-1.37.25-3.53-.24-4.48Z"/>
    <path class="cls-1" d="M280.51,188.65c0-2.75.42-6.21-.12-8.72-.33-1.52.17-3.47-.12-4.85-.27-1.25.48-3.38-.12-4.36-.04-.12-.08-.24-.12-.36-1.3.01-3.19.24-4.26-.12.01-1.37.25-3.53-.24-4.48-1.33,0-3.28.25-4.38-.12.01-1.37.25-3.53-.24-4.48-1.33.01-3.28.25-4.39-.12,0-1.49-.03-3.18.12-4.48,1.3,0,3.19.24,4.26-.12-.01-1.58-.15-3.57.37-4.6h4.14c0-1.69-.02-3.3.36-4.48.35-1.06,0-3.54.12-4.6,1.3.01,3.19.24,4.26-.12.08-5.45.16-10.9.24-16.36,0-1.14-.23-6.1.12-6.66v-8.84c-.36-.72-3.44-.36-4.51-.36h-14.01c-.14.14-.31.26-.49.36v4.48h-4.14c-.16,9.17-.32,18.34-.49,27.5-1.33,0-3.28-.25-4.38.12-.25,1.25-.13,3.03-.12,4.48-1.31-.02-3.91-.35-4.75.24-1.35.01-3.45.24-4.38-.24-.04-4.32-.08-8.64-.12-12.96,0-1.08.29-4.54-.12-5.21v-.24h-4.14c-.04-2.06-.08-4.12-.12-6.18,0-.77.21-2.25-.12-2.79.02-1.42.28-3.72-.24-4.72h-4.14c-.08-.21-.02-.12-.12-.24.02-1.51.22-3.66-.37-4.6h-8.77c-1.25.39-2.99.37-4.75.36.02,1.45.23,3.61-.37,4.48-1.37-.01-3.55-.25-4.51.24,0,1.29.24,3.18-.12,4.24-1.3,0-3.19-.24-4.26.12-.08.21-.02.12-.12.24-.01,1.34-.24,3.43.24,4.36,1.3,0,3.19-.24,4.26.12-.02,1.18-.37,3.91.24,4.6,0,1.33-.25,3.26.12,4.36h4.14c.26,2.26.12,5.05.12,7.51v69.18c0,1.22-.34,5.31.12,6.06v.24c1.34.26,3.21.12,4.75.12h8.89c1.03,0,4.24.27,4.87-.12,1.4.01,3.65.27,4.63-.24v-42.16c0-.93-.29-2.85.12-3.51.04-.12.08-.24.12-.36,4.8.02,8.79.5,13.4.48.02,4.72.51,8.7.49,13.45h4.14c.04,4.44.08,8.89.12,13.33,0,1.08-.29,4.54.12,5.21v9.45c0,1.34-.25,3.25.12,4.36.9-.01,3.72-.22,4.26.12h13.15c1.65,0,4.4.37,5.6-.24,0-9.26.37-18.8-.24-27.74h-4.14Z"/>
  </g>
</svg>