<?xml version="1.0" encoding="UTF-8"?>
<svg id="Layer_1" data-name="Layer 1" xmlns="http://www.w3.org/2000/svg" viewBox="0 0 1648.87 623.19">
  <defs>
    <style>
      .cls-1 {
        fill: #231f20;
        fill-rule: evenodd;
      }
    </style>
  </defs>
  <path class="cls-1" d="M1125.68,19.99h-9.1c-.72,2.49-.54,6.58-.52,9.88-1.99,1.04-6.48.55-9.36.52-.79,2.35-.28,6.51-.26,9.36-.21.27-.09.07-.26.52-2.35.79-6.51.28-9.36.26.02,7.07-.76,11.68-.78,18.71,2.72,1.39,9.02.52,12.73.52h530.21c1.75,1.25,7.14.56,9.88.52v8.84h-8.84v.52c-.75,1.18-.29,7.39-.26,9.36-2.03,1.24-6.63.82-9.88.78v9.1c-2.03,1.24-6.63.82-9.88.78v9.1c-2.03,1.24-6.63.82-9.88.78v9.1c-2.03,1.24-6.63.82-9.88.78v9.1c-2.03,1.24-6.63.82-9.88.78v9.1c-1.98,1.21-6.43.82-9.62.78-.77,2.28-.28,6.33-.26,9.1-1.99,1.21-6.43.82-9.62.78-.77,2.28-.28,6.32-.26,9.1-1.98,1.21-6.43.82-9.62.78-.77,2.28-.28,6.33-.26,9.1-1.99,1.21-6.43.82-9.62.78-.77,2.28-.28,6.32-.26,9.1-1.98,1.21-6.43.82-9.62.78-.77,2.28-.28,6.33-.26,9.1-1.99,1.21-6.43.82-9.62.78-.77,2.28-.28,6.32-.26,9.1-.21.27-.09.07-.26.52-2.35.79-6.51.28-9.36.26-.96,2.94-.26,7.98-.26,11.44v106.3c-1.21,1.94.32,7.94-.26,10.66-1.01,4.75-.7,16.1.52,20.01v8.84h8.84c.09.26.17.52.26.78.75,1.18.29,7.39.26,9.36-1.99,1.04-6.49.55-9.36.52v9.1c-.35.35-.69.69-1.04,1.04v8.84h-8.84c-.72,2.49-.54,6.58-.52,9.88-1.99,1.04-6.49.55-9.36.52-1.06,2.04-.55,6.69-.52,9.62-1.99,1.04-6.48.55-9.36.52-.79,2.35-.28,6.51-.26,9.36-.21.26-.09.07-.26.52h-.52c-1.13.72-6.95.29-8.84.26.02,7.07-.76,11.68-.78,18.71-2.28.77-6.33.28-9.1.26-.09.26-.17.52-.26.78-.73,1.15-.29,7.17-.26,9.1-2.35.79-6.51.28-9.36.26-.81,2.42-.28,6.7-.26,9.62-1.32,1.36-.78,5.47-.78,8.06v110.46h-8.84c-.7,2.43-.54,6.39-.52,9.62-2.24.74-6.12.26-8.84.26h-79.79c-1.45,1.27-7.13.56-9.62.52-.79,2.35-.28,6.51-.26,9.36-1.46,1.46-.83,6.83-.78,9.62h-8.84c-1.12,2.28-.81,6.69-.78,10.14-2.28.77-6.33.28-9.1.26-1.06,2.04-.55,6.68-.52,9.62-1.99,1.04-6.48.55-9.36.52-.77,2.28-.28,6.33-.26,9.1-2.2,1.14-7.28.55-10.39.52-1.48.91-9.29.26-11.7.26h-30.67c-38.26,0-77.04-.23-114.88-.26-1.04-1.99-.55-6.48-.52-9.36-2.04-1.06-6.68-.55-9.62-.52-1.04-1.99-.55-6.48-.52-9.36-2.35-.79-6.51-.28-9.36-.26-1.21-1.99-.82-6.43-.78-9.62-2.15.05-9.29.41-9.88-.78v-9.1c-7.07.02-11.68-.76-18.71-.78-.77-2.28-.28-6.32-.26-9.1-2.04-1.06-6.69-.55-9.62-.52-1.04-1.99-.55-6.49-.52-9.36-2.04-1.06-6.68-.55-9.62-.52-1.04-1.99-.55-6.48-.52-9.36-2.28-.77-6.32-.28-9.1-.26-.27-.21-.07-.09-.52-.26-.79-2.35-.28-6.51-.26-9.36-2.35-.79-6.51-.28-9.36-.26-.27-.21-.07-.09-.52-.26-.79-2.35-.28-6.51-.26-9.36-7.06.02-11.67-.76-18.71-.78-.77-2.28-.28-6.33-.26-9.1-.26-.09-.52-.17-.78-.26-1.24-.77-7.09-.26-9.1-.26h-434.56c-2.44.63-6.38.52-9.62.52v8.84c-2.03,1.24-6.63.82-9.88.78-.77,2.28-.28,6.33-.26,9.1-2.03,1.24-6.63.82-9.88.78-.77,2.28-.28,6.32-.26,9.1-1.99,1.04-6.48.55-9.36.52-.27.21-.07.09-.52.26-.79,2.35-.28,6.51-.26,9.36h-9.1c-1.44,1.93-1.09,6.17-1.04,9.62h-8.84c-.35.35-.69.69-1.04,1.04h-8.84v8.84c-2.03,1.24-6.63.82-9.88.78-.77,2.28-.28,6.32-.26,9.1-2.03,1.24-6.63.82-9.88.78-.79,2.35-.28,6.51-.26,9.36-2.35.79-6.51.28-9.36.26-1.04,1.99-.55,6.48-.52,9.36-2.04,1.06-6.68.55-9.61.52-1.04,1.99-.55,6.49-.52,9.36-2.35.79-6.51.28-9.36.26-1.54,1.15-9.19.52-11.95.52h-145.81c-2.61-.81-6.17-.78-9.88-.78.02-7.03-.76-11.65-.78-18.71-2.28-.77-6.33-.28-9.1-.26-1.24-2.03-.82-6.63-.78-9.88-2.28-.77-6.32-.28-9.1-.26-1.06-2.04-.55-6.69-.52-9.62-1.99-1.04-6.48-.55-9.36-.52-.77-2.28-.28-6.32-.26-9.1-2.84-1.7-12.43-.78-16.89-.78h-42.1c-.77-2.28-.28-6.33-.26-9.1-.81-1.08-.52-3.61-.52-5.46v-63.68c-3.21-1.06-8.73-.26-12.47-.26h-26.77c-1.44-.9-7.89-.15-9.88-.52v-9.1h-.52c-1.23-.77-4.73-.26-6.5-.26-3.88,0-7.77-.54-12.22-.52-.77-2.28-.28-6.33-.26-9.1h-.52c-1.39-.86-5.32-.24-7.28-.26-1.57-.02-1.98-.51-2.86-.78h-8.84v-8.84c-2.64-.65-6.72-.53-10.14-.52-1.04-1.99-.55-6.48-.52-9.36-6.84.02-12.12-.5-18.97-.52-1.04-1.99-.55-6.49-.52-9.36-2.42-.81-6.7-.28-9.62-.26-1.45-1.27-7.13-.56-9.62-.52-.79-2.35-.28-6.51-.26-9.36-.97-1.55-.26-6.16-.26-8.32,0-7.58.46-13.59.52-21.05h8.84c.68-6.29.52-13.09.52-19.75,0-3.65-.19-8.07.52-10.92h8.84c-.04-13.23,1-25.54,1.04-38.47h8.84c.32-2.9-.43-7.21.26-10.4.58-2.69-.59-6.93.26-9.88.67-2.32.51-6.23.52-9.36h8.84v-.52c.76-1.24.26-4.72.26-6.5,0-4.24-.13-10.1.78-13.78h8.84c-.04-5.85-.47-14.66.78-19.49.76-2.93-.26-6.95.26-9.62h8.84v-.52c.71-1.15.26-4.32.26-5.98,0-4.14-.22-9.57.52-13.52,2.28-.77,6.32-.28,9.1-.26v-18.71h-9.1c-1.24-2.03-.82-6.63-.78-9.88h-9.1c-1.24-2.03-.82-6.63-.78-9.88h-9.1c-1.24-2.03-.82-6.63-.78-9.88h-9.1c-.22-.38-.47-.74-.78-1.04v-8.84c-3.03.03-6.75.25-9.36-.26-.09-.26-.17-.52-.26-.78-.72-1.13-.29-6.95-.26-8.84-3.03.03-6.75.25-9.36-.26-.09-.26-.17-.52-.26-.78-.72-1.13-.29-6.95-.26-8.84-3.03.03-6.75.25-9.36-.26-.09-.26-.17-.52-.26-.78-.72-1.13-.29-6.95-.26-8.84-3.03.03-6.75.25-9.36-.26-.09-.26-.17-.52-.26-.78-.72-1.13-.29-6.95-.26-8.84-3.03.03-6.75.25-9.36-.26-.09-.26-.17-.52-.26-.78-.72-1.13-.29-6.95-.26-8.84-3.03.03-6.75.25-9.36-.26-.09-.26-.17-.52-.26-.78-.72-1.13-.29-6.95-.26-8.84-3.04.03-6.75.25-9.36-.26-.09-.26-.17-.52-.26-.78-.72-1.13-.29-6.95-.26-8.84-3.03.03-6.75.25-9.36-.26-.09-.26-.17-.52-.26-.78-.72-1.13-.29-6.95-.26-8.84-3.04.03-6.75.25-9.36-.26-.09-.26-.17-.52-.26-.78-.72-1.13-.29-6.95-.26-8.84h-8.84c-1.37-2.1-1.08-6.29-1.04-9.88h-8.84c-1.39-2.14-1.08-6.5-1.04-10.14H.55C-.16,67.46.01,63.49.03,60.27c2.56-.86,7.07-.28,10.14-.26,1.41-.87,8.63-.26,10.92-.26h531.51c.81-2.42.28-6.7.26-9.62-2.28-.77-6.32-.28-9.1-.26-1.06-2.04-.55-6.68-.52-9.62-.21-.27-.09-.07-.26-.52-2.28-.77-6.33-.28-9.1-.26.02-7.03-.76-11.64-.78-18.71-2.28-.77-6.32-.28-9.1-.26-1.06-2.04-.55-6.68-.52-9.62-1.99-1.04-6.48-.55-9.36-.52-1.04-1.99-.55-6.48-.52-9.36,2.09-1.09,6.88-.55,9.88-.52,1.5-.93,9.51-.26,11.96-.26h590.25c1.24,2.03.82,6.63.78,9.88-1.49,1.49-.83,7.04-.78,9.88h0ZM582.74,30.64c.09,6.32.17,12.65.26,18.97,2.35.79,6.51.28,9.36.26v.52c.83,1.34.36,8.15.78,9.88h9.1c-.02,6.75.5,11.93.52,18.71,2.42.81,6.7.28,9.62.26.34,3.04.26,6.95.26,10.39,2.28.77,6.33.28,9.1.26v8.84c-3.2,0-7.23-.17-9.62.52H79.56c-.79,2.35-.28,6.51-.26,9.36,2.28.77,6.33.28,9.1.26.27.21.07.09.52.26v.52c.72,1.13.29,6.95.26,8.84,2.35.79,6.51.28,9.36.26,1.06,2.04.55,6.68.52,9.62,2.35.79,6.51.28,9.36.26,1.06,2.04.55,6.68.52,9.62,2.35.79,6.51.28,9.36.26,1.06,2.04.55,6.68.52,9.62,2.35.79,6.51.28,9.36.26,1.06,2.04.55,6.68.52,9.62,2.35.79,6.51.28,9.36.26,1.06,2.04.55,6.68.52,9.62,2.35.79,6.51.28,9.36.26.09.26.17.52.26.78.72,1.13.29,6.95.26,8.84,2.28.77,6.32.28,9.1.26.27.21.07.09.52.26v.52c.72,1.13.29,6.95.26,8.84,2.49.84,6.89.28,9.88.26.77-2.28.28-6.33.26-9.1-1.8-1.22-1.11-6.95-1.04-9.88h-9.1c-1.24-2.03-.82-6.63-.78-9.88h-9.1c-1.24-2.03-.82-6.63-.78-9.88h-9.1c-1.24-2.03-.82-6.63-.78-9.88h-9.1c-1.24-2.03-.82-6.63-.78-9.88h-9.1c-1.24-2.03-.82-6.63-.78-9.88h-9.1c-.22-.38-.47-.75-.78-1.04v-8.84c.38-.22.74-.47,1.04-.78h532.29c.77-2.28.28-6.32.26-9.1-2.28-.77-6.33-.28-9.1-.26-1.06-2.04-.55-6.68-.52-9.62-1.99-1.04-6.49-.55-9.36-.52-1.06-2.04-.55-6.68-.52-9.62-.21-.27-.09-.07-.26-.52-2.28-.77-6.33-.28-9.1-.26.02-7.02-.76-11.63-.78-18.71-2.35-.79-6.51-.28-9.36-.26-.86-2.56-.28-7.07-.26-10.14.21-.27.09-.07.26-.52h443.66v.52c.76,1.2.29,7.61.26,9.62h-9.1c-.09.26-.17.52-.26.78-.75,1.18-.29,7.39-.26,9.36h-.52c-1.13.72-6.95.29-8.84.26-.81,2.42-.28,6.7-.26,9.62-2.04,1.06-6.68.55-9.62.52.02,7.13-.76,11.83-.78,18.97h-9.1c-.09.26-.17.52-.26.78-.72,1.13-.29,6.95-.26,8.84,3.43,1.13,10.93.26,15.07.26h507.86c1.25.79,8.05.29,10.14.26,1.04,1.99.55,6.48.52,9.36-.21.27-.09.07-.26.52h-.52c-1.13.72-6.95.29-8.84.26-.79,2.35-.28,6.51-.26,9.36-.21.27-.09.07-.26.52h-9.36v9.88c7.02.02,11.63-.76,18.71-.78v-9.1c2.03-1.24,6.63-.82,9.88-.78v-9.1c2.03-1.24,6.63-.82,9.88-.78v-9.1c2.03-1.24,6.63-.82,9.88-.78v-8.84c-3.12,0-7.04.15-9.36-.52h-36.91c-165.3,0-331.29-.18-496.16-.26v-9.62c2.28-.77,6.32-.28,9.1-.26-.02-7.2.76-12.05.78-19.23h9.1c.09-.26.17-.52.26-.78.75-1.18.29-7.39.26-9.36h9.36c.79-2.35.28-6.51.26-9.36,1.73-1.58,6.33-1.1,9.62-1.04.09-6.24.17-12.48.26-18.71h-483.69ZM651.35,89.9c-.02,7.03.76,11.65.78,18.71,2.35.79,6.51.28,9.36.26.09.26.17.52.26.78.74,1.14.29,7.97,0,9.36-2.66.87-7.23.26-10.39.26h-97.73c-.31.21-.44.2-1.04.26v8.84c17.48,1.19,36.38.26,54.32.26,31.25,0,62.98.25,93.83.26,1.06,3.21.26,8.73.26,12.47v27.55c.72,1.13.29,6.95.26,8.84,1.99,1.04,6.48.55,9.36.52,1.06-2.04.55-6.68.52-9.62,2.35-.79,6.51-.28,9.36-.26,1.06-2.04.55-6.68.52-9.62,2.35-.79,6.51-.28,9.36-.26,1.04-1.99.55-6.48.52-9.36,2.04-1.06,6.68-.55,9.61-.52,1.04-1.99.55-6.49.52-9.36,2.35-.79,6.51-.28,9.36-.26.88-.95,7.55-.56,9.62-.52.77-2.28.28-6.33.26-9.1.26-.09.52-.17.78-.26,1.19-.74,4.52-.26,6.24-.26,4.51-.17,9.01-.35,13.51-.52v-8.84c12.82,0,25.65,0,38.47,0v8.84c6.37.71,13.23.51,20.01.52,1.04,1.99.55,6.48.52,9.36,2.42.81,6.7.28,9.62.26,1.64,1.4,7.8.35,10.14.78v8.84h9.1v-8.84c.38-.22.74-.47,1.04-.78h9.1c.79-2.35.28-6.51.26-9.36h.52c1.15-.73,7.17-.29,9.1-.26,1.25-1.84.83-6.3.78-9.36,3.61.03,7.11.04,9.62-.78,2.44-.8,7.17.22,9.62-.26v-8.84c2.42-.81,6.7-.28,9.62-.26v9.1h.52c1.38.85,8.36.35,10.14.78v9.1c6.46.02,13.51,1.15,19.49,0v-8.84c12.91-.09,25.82-.17,38.73-.26v9.1c7.67.87,15.98.52,24.17.52,14.99-.09,29.98-.17,44.96-.26.77-2.28.28-6.32.26-9.1-.09-.09-.17-.17-.26-.26h-69.13c-.03-7.31.75-12.25.78-19.49,2.28-.77,6.32-.28,9.1-.26,1.09-2.09.55-6.88.52-9.88,2.35-.79,6.51-.28,9.36-.26.79-2.35.28-6.51.26-9.36,1.72-1.58,6.32-1.1,9.62-1.04-.02-7.02.76-11.69.78-18.71-2.03-1.03-6.45-.52-9.36-.52h-376.6c-1.13.72-6.95.29-8.84.26-.77,2.28-.28,6.33-.26,9.1,2.35.79,6.51.28,9.36.26.09.26.17.52.26.78.74,1.15.29,7.17.26,9.1,2.28.77,6.33.28,9.1.26,1.06,2.04.55,6.69.52,9.62.21.27.09.07.26.52,2.28.77,6.32.28,9.1.26h0ZM720.49,98.74h-8.84c-1.37,2.1-1.08,6.29-1.04,9.88h-8.84v-8.84c-2.87-.33-6.6-.26-9.88-.26-1.24-2.03-.82-6.63-.78-9.88-.21-.26-.09-.07-.26-.52h-8.84c-.77-2.28-.28-6.32-.26-9.1,2.28-.77,6.32-.28,9.1-.26,1.21-1.99.82-6.43.78-9.62,2.35-.79,6.51-.28,9.36-.26,1.61-1.24,7.01-.56,9.61-.52,1.22,1.99.82,6.43.78,9.62,2.28.77,6.33.28,9.1.26,1.21,1.98.82,6.43.78,9.62-1.47,1.55-.83,6.99-.78,9.88h0ZM868.63,70.15c0,7.37.52,13.3.52,20.79,0,2.73.18,6.01-.26,8.32-2.28.77-6.33.28-9.1.26-1.07-.81-3.61-.52-5.46-.52-4.85.09-9.7.17-14.55.26-4.92,1.06-10.88,0-16.12,0h-4.16c-4.2.9-9.34,0-13.77,0-8.4.09-16.81.17-25.21.26-.09-.26-.17-.52-.26-.78-.89-1.41-.37-6.05-.26-8.06.39-6.9.72-13.34.78-20.53,3.7,0,7.26.03,9.88-.78h3.64c4.67,0,10.71,1.51,15.34.52,4.67-1,10.44,0,15.33,0h4.16c3.34-.8,8.48-.31,12.22-.26,9.58.12,18.12.52,27.29.52h0ZM948.69,78.98h8.84c1.37,2.1,1.08,6.29,1.04,9.88-1.27,1.65-.56,7.22-.52,9.88-2.04,1.06-6.68.55-9.62.52-1.04,1.99-.55,6.49-.52,9.36-2.28.77-6.33.28-9.1.26-.77-2.28-.28-6.32-.26-9.1-2.04-1.06-6.68-.55-9.61-.52-1.06-2.04-.55-6.68-.52-9.62-1.23-1.58-.7-8.02-.26-10.14.26-.09.52-.17.78-.26,1.13-.72,6.95-.29,8.84-.26v-8.84c2.08-1.27,6.83-.82,10.14-.78,1.21,1.99.82,6.43.78,9.62h0ZM790.4,79.76c-.77,2.28-.28,6.33-.26,9.1,1.99,1.04,6.48.55,9.36.52.26-.21.07-.09.52-.26v-9.1c-2.42-.81-6.7-.28-9.62-.26h0ZM810.16,80.02v8.84h9.1v-8.84h-9.1ZM828.64,80.02v8.84h9.1v-8.84h-9.1ZM847.13,80.02v8.84h9.1v-8.84h-9.1ZM128.94,119.53v8.84c3.23,0,7.18-.11,9.62.52h78.23c1.04-1.99.55-6.49.52-9.36-1.96-.65-5.37-.26-7.8-.26h-71.47c-1.15.74-7.17.29-9.1.26h0ZM257.34,119.53v8.84c3.37,0,7.17.09,10.14.26,2.88.16,6.38-.27,8.84.26h218.32c2.97,0,6.55.22,9.1-.26.77-2.28.28-6.32.26-9.1h-.52c-1.01-.62-3.71-.26-5.2-.26h-61.08c-59.88,0-120.4.23-179.85.26h0ZM1185.2,128.37v-8.84c-8.92-.09-17.85-.17-26.77-.26-4.18,0-9.27-.45-13,.26v8.84h.52c2.2,1.36,7.07-.34,9.88.26,2.25.48,5.63.26,8.32.26,7.57,0,13.56-.48,21.05-.52h0ZM1224.71,119.27c-1.13,1.68-.56,6.47-.52,9.1h.52c1.24.76,4.72.26,6.5.26,4.68.09,9.36.17,14.04.26h243.01c7.06,0,16.43.97,22.87-.26.77-2.28.28-6.32.26-9.1h-.52c-1.15-.71-4.32-.26-5.98-.26h-280.18ZM1096.83,119.53v8.84h9.36v-8.84h-9.36ZM484.49,159.03v8.84c-.38.22-.74.47-1.04.78-3.19-.03-7.11-.28-9.88.26v8.84h-8.84v-8.84c-.26-.09-.52-.17-.78-.26-1.4-.87-7.68-.16-9.62-.52-.77-2.28-.28-6.32-.26-9.1-3.31,0-7.37.13-9.88-.52-2.93-.76-6.97.31-9.62-.26h-11.7c-9.18.17-18.37.35-27.55.52-.77,2.28-.28,6.32-.26,9.1h-.52c-1.4.87-5.31.23-7.28.26-1.46.02-1.77.52-2.6.78h-8.84v8.84c-.38.22-.74.47-1.04.78h-9.1c-.79,2.35-.28,6.51-.26,9.36-2.35.79-6.51.28-9.36.26-1.04,1.99-.55,6.48-.52,9.36-1.99,1.04-6.48.55-9.36.52-.35-.33-.46-.35-1.04-.52v-8.84c-7.13.02-11.83-.76-18.97-.78-.77-2.28-.28-6.33-.26-9.1-2.35-.79-6.51-.28-9.36-.26-1.58-1.73-1.1-6.33-1.04-9.62-3.19.02-7.24.17-9.62-.52-2.86-.83-7,.25-9.62-.26-.77-2.28-.28-6.32-.26-9.1-7.19.03-12.04-.75-19.23-.78-.77-2.28-.28-6.33-.26-9.1h-.52c-2.1-1.29-6.68.31-9.36-.26-2.57-.55-6.5.48-9.36-.26-2.51-.65-6.57-.53-9.88-.52v-8.84h-20.01v9.1c-.26.09-.52.17-.78.26-1.13.72-6.95.29-8.84.26-.77,2.28-.28,6.33-.26,9.1-1.73,1.58-6.33,1.1-9.62,1.04.03,7.09-.75,11.86-.78,18.97-2.28.77-6.32.28-9.1.26v.52c-.77,1.24-.26,4.73-.26,6.5,0,3.9-.54,7.98-.52,12.48-2.28.77-6.33.28-9.1.26v.52c-.77,1.24-.26,4.73-.26,6.5,0,3.9-.54,7.98-.52,12.48-2.28.77-6.32.28-9.1.26v.52c-.74,1.2-.26,4.52-.26,6.24,0,4.13.1,9.94-.78,13.51h-8.84c.04,10.15-1,18.71-1.04,28.85h-8.84v.52c-.74,1.2-.26,4.52-.26,6.24,0,4.2.12,10.13-.78,13.78h-8.84c.03,9.92-.75,18.73-.78,28.85-2.28.77-6.32.28-9.1.26.02,3.48.13,7.71-.52,10.4-.7,2.89.3,6.77-.26,9.36-.67,3.11.28,7.08-.26,9.88h-8.84c.02,3.48.13,7.71-.52,10.4-.72,2.97.32,6.95-.26,9.62-.67,3.12.07,7.3-.26,10.14h-8.84c.02,3.37-.09,7.17-.26,10.14-.16,2.96.29,6.56-.26,9.1-.67,3.1.34,7.1-.26,9.88-.69,3.19.3,7.26-.26,10.14h-8.84v9.36h8.84v.52c.74,1.15.29,7.17.26,9.1h.52c1.41.87,7.68.16,9.62.52,1.04,1.99.55,6.48.52,9.36,3.19-.02,7.24-.17,9.62.52,2.86.83,7-.25,9.62.26.77,2.28.28,6.32.26,9.1,7.19-.03,12.04.75,19.23.78.77,2.28.28,6.33.26,9.1,2.42.81,6.7.28,9.62.26,1.49,1.49,7.04.83,9.88.78v8.84c.26.09.52.17.78.26.92.57,3.3.26,4.68.26h11.44c14.12.09,28.24.17,42.36.26-.02,15.43.26,31.27.26,47.04v21.57c.69,2.39.52,6.42.52,9.62h108.38v-8.84h9.1v-.52c.65-1.05.26-3.91.26-5.46v-13.25c.09-16.63.17-33.27.26-49.9,2.35-.79,6.51-.28,9.36-.26,1.22-.78,7.83-.29,9.88-.26.74-1.45.52-4.27.52-6.5v-13.77c.72-1.13.29-6.95.26-8.84,2.35-.79,6.51-.28,9.36-.26.77,2.28.28,6.32.26,9.1h.52c1.05.65,3.91.26,5.46.26,3.81.09,7.63.17,11.44.26,13.58.01,27.73-.48,41.32-.52v-8.84c.26-.09.52-.17.78-.26,1.44-.9,7.89-.15,9.88-.52.77-2.28.28-6.33.26-9.1h8.84c-.02,6.76.5,11.95.52,18.71,1.49.49,4.06.26,5.98.26h201.17c.86-2.56.28-7.07.26-10.14.65-1.05.26-3.91.26-5.46v-13.51c-.09-13.17-.17-26.34-.26-39.51.65-2.51.53-6.57.52-9.88,3.04-.03,6.75-.25,9.36.26v8.84c.57.92.26,3.3.26,4.68v39.51c0,5.29-.28,11.25.26,16.11h8.84v8.84h.52c1.46.9,9.07.26,11.44.26h565.56c5.08,0,11.25.62,15.85-.26v-9.88c1.01-1.64.26-10.83.26-13.51v-35.61c7.03-.02,11.65.76,18.71.78v147.11c.35.35.69.69,1.04,1.04v8.84h117.48v-8.84c.08-.16.95-.55,1.04-.78v-147.37h8.84c1.12-2.28.81-6.69.78-10.14h9.1c1.06-2.04.55-6.68.52-9.62,1.99-1.04,6.48-.55,9.36-.52,1.04-1.99.55-6.48.52-9.36.21-.27.09-.07.26-.52h9.1c.79-2.35.28-6.51.26-9.36,1.73-1.58,6.33-1.1,9.62-1.04-.02-7.04.76-11.65.78-18.71,2.28-.77,6.33-.28,9.1-.26.09-.26.17-.52.26-.78.77-1.24.26-4.73.26-6.5,0-3.88.54-7.77.52-12.22h8.84c.35-3.07-.46-7.56.26-10.92.94-4.37.26-10.48.26-15.33v-30.41c0-37.04-.24-74.61-.26-111.24h-118.52v8.84c-2.49.83-6.89.28-9.88.26-1.18-.75-7.39-.29-9.36-.26v-8.84h-118.52v8.84h-.52c-1.18.75-7.39.29-9.36.26-.77-2.28-.28-6.33-.26-9.1h-.52c-1.29-.8-4.92-.25-6.76-.26-1.4,0-2.31-.31-3.12-.52-3.01-.78-7.14.26-9.88-.26v-8.84h-18.97v8.84c-3.34-.03-7.62-.21-10.14.52-2.75.8-7.66-.17-10.4.52v8.84c-6.38.02-13.33,1.13-19.23,0v-8.84c-2.35-.79-6.51-.28-9.36-.26-1.4-1.06-8.66-.54-10.92-.78v-8.84h-18.97v8.84c-9.51,1.08-19.46.26-29.37.26-.77-2.28-.28-6.32-.26-9.1-5.13-1.48-13.42-.54-19.49-.52-.26.21-.07.09-.52.26-.77,2.28-.28,6.32-.26,9.1-2.35.79-6.51.28-9.36.26-1.25,1.54-7.22.83-9.88.78v9.1h-.52c-1.15.73-7.17.29-9.1.26-1.04,1.99-.55,6.49-.52,9.36-2.35.79-6.51.28-9.36.26-1.12.83-10.36.88-10.92-.26v-8.84c-7.06.02-11.67-.76-18.71-.78-.77-2.28-.28-6.33-.26-9.1h-.52c-1.34-.83-5.12-.25-7.02-.26-1.32,0-2.1-.32-2.86-.52-2.99-.77-7.39.05-10.14-.26v-8.84h-18.97v8.84c-2.83.33-7.01-.41-10.14.26-3.95.84-16.02.76-20.01,0-.77-2.28-.28-6.32-.26-9.1-3.12,0-7.04.15-9.36-.52-2.36-.68-8.76.05-10.4.52h-9.1v8.84c-2.04,1.06-6.68.55-9.62.52-1.25,1.84-.83,6.3-.78,9.36-2.28.77-6.33.28-9.1.26-1.49,1.49-7.04.83-9.88.78v8.84c-.38.22-.75.47-1.04.78-6.32-.09-12.65-.17-18.97-.26-1.04-1.99-.55-6.49-.52-9.36-2.35-.79-6.51-.28-9.36-.26-1.46-1.46-6.83-.83-9.62-.78v-8.84c-5.93-1.44-14.14-.3-20.53-1.04v-8.84h-18.97v8.84c-6.05.37-15.42-.32-20.79,1.04v8.84c-7.03-.02-11.64.76-18.71.78-.77,2.28-.28,6.32-.26,9.1-2.04,1.06-6.68.55-9.62.52-1.04,1.99-.55,6.48-.52,9.36-1.99,1.04-6.48.55-9.36.52-1.04,1.99-.55,6.49-.52,9.36-1.99,1.04-6.49.55-9.36.52-1.06,2.04-.55,6.68-.52,9.62-1.99,1.04-6.48.55-9.36.52-.79,2.35-.28,6.51-.26,9.36-1.51,1.23-.83,7-.78,9.62h-18.71c.03-3.56.15-7.17-.78-9.62-.82-2.17.19-7.34-.26-9.62h-8.84c-1.06-2.04-.55-6.68-.52-9.62-1.37-1.61-.52-7.72-.52-10.39v-28.85c-3.12,0-7.04.15-9.36-.52h-96.17c-4.1,0-9.09-.43-12.73.26-.77,2.28-.28,6.33-.26,9.1h-8.84v-8.84c-2.75-.66-7.58-.18-10.66-.78-.77-2.28-.28-6.32-.26-9.1-3.2,0-7.23.17-9.62-.52-6.32.09-12.65.17-18.97.26-.77,2.28-.28,6.32-.26,9.1-2.04,1.06-6.69.55-9.62.52-1.25,1.84-.83,6.3-.78,9.36-2.28.77-6.33.28-9.1.26-1.55,1.47-6.99.82-9.88.78h0ZM158.57,139.28c-.09,6.24-.17,12.48-.26,18.71,2.35.79,6.51.28,9.36.26,1.06,2.04.55,6.68.52,9.62,2.49.84,6.88.28,9.88.26,1.15.74,7.17.29,9.1.26.79-2.35.28-6.51.26-9.36.33-.35.36-.46.52-1.04h9.1v-18.71h-38.47ZM316.6,139.28c-.09,6.24-.17,12.48-.26,18.71,6.85-.02,12.13.5,18.97.52,1.04,1.99.55,6.49.52,9.36,2.49.84,6.89.28,9.88.26,1.18.75,7.39.29,9.36.26,1.04-1.99.55-6.49.52-9.36,2.04-1.06,6.68-.55,9.62-.52.27-.21.07-.09.52-.26.09-.09.17-.17.26-.26v-9.88h8.84v-8.84h-58.22ZM829.13,188.66v8.84c2.47.83,6.54.8,10.14.78v9.1c2.04,1.06,6.68.55,9.62.52,1.06,2.04.55,6.68.52,9.62,1.99,1.04,6.49.55,9.36.52.77,2.28.28,6.32.26,9.1,1.5,1.59.83,7.21.78,10.14h8.84c.09.26.17.52.26.78,1.02,1.65.26,10.82.26,13.51.09,11.52.17,23.05.26,34.57v128.65c-2.39,1.43-8.02.78-11.7.78h-28.07c-1.18-.75-7.39-.29-9.36-.26-1.31-2.57-.52-10.56-.52-14.29v-34.57h-.52c-1.38-.85-8.41-.26-10.66-.26h-27.81c-.77,2.28-.28,6.33-.26,9.1-.87,1.4-.26,8.63-.26,10.92v28.85c-2.35.79-6.51.28-9.36.26-1.4.87-8.63.26-10.92.26h-28.59c-1.29-2.54-.52-10.34-.52-14.03v-154.64c.73-1.15.29-7.17.26-9.1,2.28-.77,6.33-.28,9.1-.26v-.52c.77-1.23.26-4.73.26-6.5,0-3.81.55-7.78.52-12.22,2.28-.77,6.32-.28,9.1-.26,1.21-1.99.82-6.43.78-9.62,2.28-.77,6.33-.28,9.1-.26,1.21-1.98.82-6.43.78-9.62,2.28-.77,6.32-.28,9.1-.26,1.44-1.93,1.1-6.17,1.04-9.62,3.61.03,7.11.04,9.62-.78,2.51-.82,7.35.23,9.88-.26v-8.84c1.48-.49,4.06-.26,5.98-.26h13.26c.77,2.28.28,6.32.26,9.1h.52c1.39.86,5.32.24,7.28.26,1.54.02,1.82.49,2.6.78h8.84ZM968.44,187.62c3.19-.02,7.24-.17,9.62.52,2.86.83,7-.25,9.62.26v9.1c2.35.79,6.51.28,9.36.26,1.21,1.98.82,6.43.78,9.61,2.35.79,6.51.28,9.36.26,1.06,2.04.55,6.68.52,9.62,2.35.79,6.51.28,9.36.26.09.26.17.52.26.78.87,1.41.16,7.68.52,9.62h8.84v38.73h-8.84v.52c-.9,1.44-.15,7.89-.52,9.88-2.35.79-6.51.28-9.36.26-.79,2.35-.28,6.51-.26,9.36-.21.27-.09.07-.26.52-2.35.79-6.51.28-9.36.26v8.84h8.84c.22.38.47.74.78,1.04v9.1c2.35.79,6.51.28,9.36.26.79,2.35.28,6.51.26,9.36.21.26.09.07.26.52,2.28.77,6.33.28,9.1.26.81,2.42.28,6.7.26,9.62.62,1.01.26,3.71.26,5.2v14.03c1.1,5.15.26,12.27.26,17.93.09,10.66.17,21.31.26,31.97h8.84v19.23c-3.62,0-7.09-.04-9.62.78h-14.29c-11.44-.09-22.87-.17-34.31-.26-.88-2.63-.28-7.26-.26-10.4-.65-1.06-.26-3.91-.26-5.46v-32.23c0-3.56.21-7.79-.26-10.91-.98-6.53.44-14.08-.26-20.27h-8.84v-9.1c-2.27-1.47-7.11-1.08-10.92-1.04v-8.84h-18.71c0,3.31.13,7.37-.52,9.88v88.11c-2.51,1.28-8.24.52-11.7.52h-28.07c-1.18-.75-7.39-.29-9.36-.26v-.52c-1.03-1.67-.26-11.04-.26-13.78v-154.13c-.52-2.44-.16-5.97-.26-8.84-.1-2.99-.26-6.75-.26-10.14h-8.84c-1.06-2.04-.55-6.68-.52-9.62-.33-.35-.36-.46-.52-1.04h-8.84v-9.1h8.84c.09-.26.17-.52.26-.78.72-1.13.29-6.95.26-8.84,2.04-1.06,6.68-.55,9.62-.52.26-.21.07-.09.52-.26.77-2.28.28-6.33.26-9.1,3.61.02,7.1.04,9.62-.78,1.97-.64,7.95,0,10.14-.26v-8.84h8.84v8.84c2.23,1.1,6.49.81,9.88.78.27.21.07.09.52.26v8.84h.52c1.13.72,6.95.29,8.84.26.77-2.28.28-6.33.26-9.1,2.04-1.06,6.68-.55,9.62-.52,1.65-1.27,7.22-.56,9.88-.52v-8.84h.52c1.19-.77,8.91-.31,10.39,0v8.84h0ZM1145.18,188.66v8.84c2.66.89,7.11.8,10.92.78.42.26,7.98.62,8.84.26.35-.35.69-.69,1.04-1.04h8.84v-8.84c.38-.22.74-.47,1.04-.78,3.11.03,6.93.27,9.61-.26v-8.84c1.48-.49,4.07-.26,5.98-.26h13c.77,2.28.28,6.32.26,9.1h.52c1.4.88,7.68.16,9.62.52.79,2.35.28,6.51.26,9.36,2.35.79,6.51.28,9.36.26.27.21.07.09.52.26v.52c.72,1.13.29,6.95.26,8.84h9.1c.26.35.52.69.78,1.04h8.84v8.84c.35.35.69.69,1.04,1.04v8.84h8.84c.09.26.17.52.26.78,1.03,1.67.26,11.04.26,13.78v173.36c-2.5,1.28-8.24.52-11.7.52h-28.07c-1.18-.75-7.39-.29-9.36-.26v-.52c-.98-1.6-.26-10.38-.26-13v-149.71c0-4.67.54-10.35-.26-14.56-2.28-.77-6.32-.28-9.1-.26-.77-2.28-.28-6.32-.26-9.1-2.43-.7-6.4-.54-9.62-.52-1.65,1.27-7.22.56-9.88.52.02,41.37-.26,83.74-.26,125.53v41.07c0,6.54.89,14.49-.26,20.53-3.21,1.06-8.73.26-12.47.26h-27.03c-1.18-.75-7.39-.29-9.36-.26-1.18-3.6-.26-11.51-.26-15.85v-151.52c-.96-1.55-.12-8.51-.52-10.66-2.28-.77-6.32-.28-9.1-.26v-8.84c-2.55-.65-7.47-.84-10.4-.26-.77,2.28-.28,6.33-.26,9.1-2.28.77-6.32.28-9.1.26-1.08,3.3-.26,12.44-.26,16.63v160.88c-.21.26-.09.07-.26.52-3.21,1.06-8.73.26-12.47.26h-27.03c-1.18-.75-7.39-.29-9.36-.26-1.05-3.2-.26-10.14-.26-14.04v-134.11c-.89-1.44-.26-8.84-.26-11.18,0-5.74.86-12.96-.26-18.19-.68-3.19.28-7.26-.26-10.14h-9.1v-.52c-1.31-2.1.49-6.47-.26-9.1-.74-2.57-.74-7.82,0-10.4v-9.1c2.35-.79,6.51-.28,9.36-.26,1.25-1.54,7.22-.83,9.88-.78v-8.84c.38-.22.75-.47,1.04-.78,3.11.03,6.93.27,9.62-.26v-8.84h9.1v8.84c2.47.83,6.54.8,10.14.78.77,2.28.28,6.33.26,9.1h9.62v-9.1c2.42-.81,6.7-.28,9.62-.26.35-.33.46-.36,1.04-.52v-8.84c6.32-.09,12.65-.17,18.97-.26.77,2.28.28,6.32.26,9.1h.52c1.38.86,5.33.24,7.28.26,1.59.01,1.83.47,2.6.78h8.84ZM257.08,178.79h9.1v8.84h.52c1.38.86,5.33.25,7.28.26,1.65.01,2.23.46,3.12.78h8.84v8.84c2.75.66,7.58.18,10.66.78.77,2.28.28,6.32.26,9.1,6.75-.02,11.94.5,18.71.52,1.04,1.99.55,6.48.52,9.36,2.35.79,6.51.28,9.36.26,1.58,1.72,1.1,6.32,1.04,9.62h9.1c.22.38.47.75.78,1.04v166.86c3.26-.02,7.03,0,9.88.26,3.16.29,6.86-.28,9.62.26,1.06,3.21.26,8.73.26,12.48v26.77c-1.67,1.51-1.1,6.49-1.04,9.62-7.07-.02-11.68.76-18.71.78v58.74c-.63,2.44-.52,6.38-.52,9.62-3.21,1.06-8.73.26-12.47.26h-26.77c-.27-.21-.07-.09-.52-.26v-9.1c-.2-.28-.16-.25-.26-.78h-8.84v-38.99c0-6.3.85-13.95-.26-19.75-.26-.09-.52-.17-.78-.26-1.01-.62-3.71-.26-5.2-.26h-62.9v-8.84c-6.46-.72-12.91-.76-19.75-.78-.77-2.28-.28-6.32-.26-9.1h-.52c-1.4-.88-7.68-.16-9.62-.52-1.04-1.99-.55-6.48-.52-9.36-6.84.02-12.12-.5-18.97-.52-1.36-2.64-.55-15.73-.52-20.01.71-1.14.26-4.32.26-5.98.09-4.42.17-8.84.26-13.26,2.28-.77,6.32-.28,9.1-.26-.03-10.38.75-19.44.78-29.63,2.28-.77,6.33-.28,9.1-.26-.03-10,.75-18.92.78-29.11,2.28-.77,6.32-.28,9.1-.26v-.52c1.24-2.01-.14-6.73.26-9.36.39-2.63-.56-7.01.26-9.88.67-2.32.53-6.23.52-9.36h8.84v-.52c.74-1.2.26-4.52.26-6.24,0-4.14-.22-9.57.52-13.51,2.28-.77,6.32-.28,9.1-.26-.02-7,.5-12.46.52-19.49,1.99-1.04,6.49-.55,9.36-.52-.04-10.07,1-18.56,1.04-28.59h8.84v-.52c.86-1.38.25-5.33.26-7.28,0-1.66.46-2.23.78-3.12v-8.84h8.84c.67-2.71.53-6.9.52-10.39,2.35-.79,6.51-.28,9.36-.26.28-.2.25-.16.78-.26v-8.84h0ZM553.63,227.39h8.84v.52c.88,1.43.26,8.85.26,11.18.09,9.27.17,18.54.26,27.81,1.99,1.04,6.49.55,9.36.52,1.79-1.28,7.35-.55,10.14-.52-.03-3.11-.27-6.93.26-9.62,2.35-.79,6.51-.28,9.36-.26.35-19.66.69-39.33,1.04-59h8.84v-9.62c.38-.22.74-.47,1.04-.78h29.89c2.27,0,8.85-.77,9.62.78v18.97c-.75,1.21-.26,11.85-.26,14.29-.17,11.7-.35,23.39-.52,35.09-2.28.77-6.33.28-9.1.26-.25,2.29.48,7.61-.26,9.88-.82,2.53-.77,5.99-.78,9.62h-8.84c-1.1,2.23-.81,6.49-.78,9.88-2.28.77-6.33.28-9.1.26-.32,2.79-.26,6.42-.26,9.62,2.35.79,6.51.28,9.36.26,1.06,2.04.55,6.69.52,9.62,2.35.79,6.51.28,9.36.26,1.06,2.04.55,6.68.52,9.62,2.28.77,6.33.28,9.1.26.09.26.17.52.26.78,1.29,2.1-.31,6.68.26,9.36.63,2.94-.44,7.13.26,10.4,1.15,5.38.27,12.82.26,18.71h8.84c1.3,19.19.51,39.65.52,59.52-2.56,1.31-8.44.52-11.96.52h-28.07c-1.15-.73-7.17-.29-9.1-.26-.79-2.38-.26-6.49-.26-9.36v-20.27c-.88-1.43-.26-8.85-.26-11.17-.09-9.53-.17-19.06-.26-28.59h-8.84c.04-10.18-1-18.71-1.04-28.85-9.83.04-18.34-1-28.59-1.04-.09.26-.17.52-.26.78-.88,1.42-.26,5.54-.26,7.54v90.45c-2.09,1.09-6.88.55-9.88.52-1.34.84-8.2.26-10.4.26h-18.97c-3.29,0-7.28.3-10.14-.26v-.52c-.99-1.6-.26-10.38-.26-13v-148.41c0-5.29.3-11.26-.26-16.12h-8.84c-.79-2.35-.28-6.51-.26-9.36-1.3-1.49-.56-7.34-.52-9.88-2.28-.77-6.33-.28-9.1-.26-1.04-1.99-.55-6.48-.52-9.36.21-.27.09-.07.26-.52,2.28-.77,6.32-.28,9.1-.26.77-2.28.28-6.33.26-9.1,2.04-1.06,6.68-.55,9.62-.52,1.27-1.88.83-6.5.78-9.62,3.76.01,7.47.05,10.14-.78h18.71c1.24,2.03.82,6.63.78,9.88.21.27.09.07.26.52h8.84c1.12,2.15.55,7.08.52,10.14.71,1.14.26,4.32.26,5.98.09,4.42.17,8.84.26,13.26h0ZM1323.99,296.52h8.84v.52c.79,1.29.25,4.92.26,6.76,0,1.4.31,2.31.52,3.12.76,2.93-.24,6.96.26,9.62h9.1c.79,2.35.28,6.51.26,9.36.21.27.09.07.26.52,2.28.77,6.33.28,9.1.26.77,2.28.28,6.33.26,9.1,2.6,1.34,15.29.54,19.49.52,1.04-1.99.55-6.48.52-9.36,1.99-1.04,6.48-.55,9.36-.52.79-2.35.28-6.51.26-9.36,1.73-1.58,6.33-1.1,9.62-1.04-.05-9.92.33-19.89,1.04-29.63h8.84c0-32.54.25-65.59.26-97.72.26-.09.52-.17.78-.26,1.55-.97,10.18-.26,12.73-.26h23.65c4.02,0,8.91-.43,12.48.26.86,2.56.28,7.07.26,10.14.99,1.61.26,6.35.26,8.58v22.09c0,18.65-.26,37.62-.26,55.88,0,6.21.92,15.84-.26,21.31-.69,3.19.29,7.26-.26,10.14-2.28.77-6.32.28-9.1.26-.79,2.35-.28,6.51-.26,9.36-1.46,1.46-.83,6.82-.78,9.62h-8.84c-1.12,2.28-.81,6.69-.78,10.14-2.28.77-6.32.28-9.1.26-1.04,1.99-.55,6.49-.52,9.36-.21.26-.09.07-.26.52h-9.1c-1.06,2.04-.55,6.68-.52,9.62-2.35.79-6.51.28-9.36.26-1.06,2.04-.55,6.69-.52,9.62-2.35.79-6.51.28-9.36.26-1.2,2.35-.52,7.64-.52,10.92v116.96c-1.27,1.65-.56,7.22-.52,9.88-19.08-.01-38.77.25-58.22.26-.79-2.35-.28-6.51-.26-9.36-.8-1.29-.26-7.53-.26-9.62v-25.21c0-31.08-.26-62.63-.26-93.31-2.28-.77-6.32-.28-9.1-.26-.27-.21-.07-.09-.52-.26-.79-2.35-.28-6.51-.26-9.36-2.35-.79-6.51-.28-9.36-.26-1.06-2.04-.55-6.68-.52-9.62-2.35-.79-6.51-.28-9.36-.26-.09-.26-.17-.52-.26-.78-.72-1.13-.29-6.95-.26-8.84-2.28-.77-6.33-.28-9.1-.26-1.06-2.04-.55-6.68-.52-9.62-1.99-1.04-6.48-.55-9.36-.52-1.06-2.04-.55-6.68-.52-9.62-1.27-1.45-.56-7.13-.52-9.62h-8.84c-1.09-2.09-.55-6.88-.52-9.88-.74-1.19-.26-4.52-.26-6.24-.09-4.59-.17-9.18-.26-13.78h-8.84c-.09-19.92-.17-39.85-.26-59.78,0-9.68-.79-20.41.26-29.63h8.84v-9.1c.26-.09.52-.17.78-.26,1.61-1,10.61-.26,13.25-.26h35.35c1.09,2.09.55,6.88.52,9.88.88,1.43.26,5.54.26,7.54v19.23c0,23.93.28,48.2.26,71.73h0ZM425.24,188.66h8.84v8.84c6.37.42,13,.51,19.75.52,1.04,1.99.55,6.49.52,9.36,2.04,1.06,6.68.55,9.62.52,1.04,1.99.55,6.48.52,9.36,2.28.77,6.33.28,9.1.26.27.21.07.09.52.26v.52c.72,1.13.29,6.95.26,8.84,2.28.77,6.32.28,9.1.26.27.21.07.09.52.26v.52c.73,1.15.29,7.17.26,9.1,2.28.77,6.33.28,9.1.26,1.14,2.2.55,7.28.52,10.4.77,1.24.26,7.09.26,9.1v86.55c0,6.35.94,16.23-.26,21.83-.7,3.27.31,7.44-.26,10.4h-9.1v.52c-.74,1.15-.29,7.17-.26,9.1-2.04,1.06-6.68.55-9.62.52-.79,2.35-.28,6.51-.26,9.36-2.04,1.06-6.69.55-9.62.52-.79,2.35-.28,6.51-.26,9.36-.26.09-.52.17-.78.26-1.15.74-7.17.29-9.1.26-.79,2.35-.28,6.51-.26,9.36h-.52c-1.29.8-4.93.25-6.76.26-3.82.01-8.03.54-12.48.52v8.84h-.52c-1.13.72-6.95.29-8.84.26-.77-2.28-.28-6.33-.26-9.1-6.38-.71-12.75-.76-19.49-.78-.77-2.28-.28-6.32-.26-9.1-.26-.09-.52-.17-.78-.26-1.15-.74-7.17-.29-9.1-.26-.79-2.35-.28-6.51-.26-9.36-2.04-1.06-6.68-.55-9.62-.52-1.06-2.04-.55-6.68-.52-9.62-2.35-.79-6.51-.28-9.36-.26-.79-2.35-.28-6.51-.26-9.36-.21-.27-.09-.07-.26-.52-2.28-.77-6.33-.28-9.1-.26-.81-2.42-.28-6.7-.26-9.62-.8-1.29-.26-7.53-.26-9.62v-108.64c.63-2.44.51-6.38.52-9.62h8.84c.66-2.63.53-6.72.52-10.14,2.35-.79,6.51-.28,9.36-.26,1.06-2.04.55-6.69.52-9.62,2.35-.79,6.51-.28,9.36-.26,1.04-1.99.55-6.48.52-9.36,2.04-1.06,6.68-.55,9.62-.52,1.04-1.99.55-6.49.52-9.36,2.35-.79,6.51-.28,9.36-.26,1.16-1,8.6-.57,10.66-.78v-8.84h0ZM938.55,227.91c-.09,11.09-.17,22.18-.26,33.27,0,5.08-.62,11.25.26,15.85,2.42.81,6.7.28,9.62.26,1.2-.76,7.61-.29,9.62-.26.35-.42.17-.29.78-.52v-8.84h8.84c.76-2.63.54-6.95.52-10.4.96-1.53.28-6.17.26-8.32-.05-7.05-.72-13.48-.78-20.79-3.33,0-7.33.09-9.88-.52-6.32.09-12.65.17-18.97.26h0ZM799.5,228.17v8.84h-8.84c-1.37,2.1-1.08,6.29-1.04,9.88h-8.84v.52c-.79,1.29-.26,4.92-.26,6.76,0,4.66-.26,9.8-.26,14.81v56.92c2.5,1.28,8.24.52,11.7.52h27.29c.79-1.55.52-4.67.52-7.02v-71.47c-1.27-1.65-.56-7.22-.52-9.88-2.15.05-9.3.41-9.88-.78v-9.1h-9.88ZM443.95,375.28c-.01-3.7-.03-7.27.78-9.88.09-6.58.17-13.17.26-19.75h8.84v-69.13h-8.84c-.09-9.53-.17-19.06-.26-28.59-.84-2.59-.77-6.19-.78-9.88-6.41-.09-12.82-.17-19.23-.26-.77,2.28-.28,6.32-.26,9.1-2.28.77-6.33.28-9.1.26-.09.26-.17.52-.26.78-1.02,1.65-.26,6.55-.26,8.84-.09,7.36-.17,14.73-.26,22.09v44.71c0,6.42-.96,16.42.26,22.09v4.68c0,5-.6,11.07.26,15.59,2.28.77,6.32.28,9.1.26.77,2.28.28,6.33.26,9.1.26.09.52.17.78.26,1.04.66,3.92.26,5.46.26,4.32,0,8.43-.47,13.25-.52h0ZM277.09,247.92c.02,3.3.13,7.38-.52,9.88-.76,2.93.26,6.95-.26,9.62-2.28.77-6.33.28-9.1.26.02,6.83-.5,12.11-.52,18.97-1.99,1.04-6.48.55-9.36.52-.83,2.49-.28,6.89-.26,9.88-.87,1.4-.16,7.68-.52,9.61-2.28.77-6.33.28-9.1.26-.81,2.42-.28,6.7-.26,9.62-.9,1.44-.15,7.89-.52,9.88-2.28.77-6.32.28-9.1.26-.83,2.49-.28,6.89-.26,9.88-.9,1.44-.15,7.89-.52,9.88-2.28.77-6.33.28-9.1.26.04,10.06-1,18.55-1.04,28.59h-8.84c-.34,2.95-.26,6.77-.26,10.14,1.62.53,4.44.26,6.5.26h61.86c1.05-3.21.26-8.72.26-12.47v-116.18c-.74-1.15-.29-7.17-.26-9.1h-8.84ZM701.77,297.3v8.84c-2.1,1.37-6.29,1.08-9.88,1.04v8.84c-.35.35-.69.69-1.04,1.04v8.84h-8.84v-8.84c-3.35.03-7.48.31-10.4-.26v-.52c-.74-1.15-.29-7.17-.26-9.1-2.35-.79-6.51-.28-9.36-.26-1.06-2.04-.55-6.68-.52-9.62h-9.1c-1.37-2.1-1.08-6.29-1.04-9.88,1.45-1.74.82-7.1.78-10.14h9.1c1.21-1.99.82-6.43.78-9.62,2.28-.77,6.32-.28,9.1-.26,1.06-2.04.55-6.68.52-9.62,2.58-1.33,15.06-.54,19.23-.52,1.04,1.99.55,6.48.52,9.36.21.27.09.07.26.52h9.1c.79,2.35.28,6.51.26,9.36,2.04,1.06,6.68.55,9.61.52,1.06,2.04.55,6.68.52,9.62,1.3,1.49.56,7.34.52,9.88-.38.22-.74.47-1.04.78h-8.84ZM524,504.71h8.84c.35-.35.69-.69,1.04-1.04h8.84v-8.84c2.03-1.24,6.63-.82,9.88-.78.79-2.35.28-6.51.26-9.36.26-.09.52-.17.78-.26,1.15-.74,7.17-.29,9.1-.26v-9.36c-52.11.02-105.78,0-157.24,0-.49,1.48-.26,4.07-.26,5.98v12.99c-.21.27-.09.07-.26.52-1.48.49-4.07.26-5.98.26h-13.25c-.86,2.56-.28,7.07-.26,10.14-.63.99-.26,3.72-.26,5.2,0,4.71-.47,10.7.52,14.55h117.48c1.68-1.44,8.01-.34,10.4-.78v-9.1c2.35-.79,6.51-.28,9.36-.26.36-.52.35-.54,1.04-.78v-8.84h0ZM1126.46,523.42c3.68,0,7.29-.06,9.88.78,2.47.8,7.15-.27,9.62.26h121.89c5.16,0,11.43.63,16.12-.26.09-.26.17-.52.26-.78,1-1.61.26-10.61.26-13.26v-35.09c-.09-.09-.17-.17-.26-.26-4.52-.51-10.12-.26-15.07-.26h-173.62c-2.97,0-6.55-.23-9.1.26-.77,2.28-.28,6.33-.26,9.1,2.04,1.06,6.69.55,9.62.52,1.04,1.99.55,6.49.52,9.36,2.04,1.06,6.68.55,9.62.52,1.04,1.99.55,6.48.52,9.36,2.28.77,6.32.28,9.1.26.27.21.07.09.52.26.79,2.35.28,6.51.26,9.36,2.35.79,6.51.28,9.36.26.27.21.07.09.52.26.09.09.17.17.26.26v9.1h0ZM562.47,503.67h-8.84c-.35.35-.69.69-1.04,1.04h-8.84v8.84c-2.03,1.24-6.63.82-9.88.78-.77,2.28-.28,6.33-.26,9.1-.21.27-.09.07-.26.52h-.52c-1.15.74-7.17.29-9.1.26-.79,2.35-.28,6.51-.26,9.36-2.35.79-6.51.28-9.36.26-.27.21-.07.09-.52.26-.79,2.35-.28,6.51-.26,9.36h-9.1c-1.37,2.01-1.09,6.11-1.04,9.62h-8.84c-.35.35-.69.69-1.04,1.04h-8.84v8.84c-2.03,1.24-6.63.82-9.88.78-.79,2.35-.28,6.51-.26,9.36-.26.09-.52.17-.78.26-1.41.87-8.63.26-10.92.26h-29.11c-29.28.09-58.57.17-87.85.26-2.42-.52-5.98-.22-8.84-.26-3.15-.04-6.88-.26-10.4-.26v9.36h8.84c.35.35.69.69,1.04,1.04h137.23c2.52-.95,6.24-.78,9.88-.78.77-2.28.28-6.32.26-9.1.21-.27.09-.07.26-.52h.52c1.15-.74,7.17-.29,9.1-.26.79-2.35.28-6.51.26-9.36,2.35-.79,6.51-.28,9.36-.26.27-.21.07-.09.52-.26.09-.09.17-.17.26-.26v-9.1h9.1c1.44-1.93,1.09-6.17,1.04-9.62h8.84c.35-.35.69-.69,1.04-1.04h8.84v-8.84c2.03-1.24,6.63-.82,9.88-.78.79-2.35.28-6.51.26-9.36.26-.09.52-.17.78-.26,1.15-.74,7.17-.29,9.1-.26.79-2.35.28-6.51.26-9.36,2.35-.79,6.51-.28,9.36-.26,1.04-1.99.55-6.49.52-9.36,2.04-1.06,6.69-.55,9.62-.52,1.04-1.99.55-6.48.52-9.36,2.35-.79,6.51-.28,9.36-.26,1.15-1.55,7.29-.84,9.88-.78v-8.84c.26-.09.52-.17.78-.26,1.26-.78,7.31-.26,9.36-.26h453.8c1.04,1.99.55,6.49.52,9.36,2.42.81,6.7.28,9.61.26,1.06,2.04.55,6.68.52,9.62,2.17-.05,9.55-.41,10.14.78v9.1c7.07-.02,11.68.76,18.71.78.77,2.28.28,6.33.26,9.1,2.04,1.06,6.68.55,9.62.52,1.04,1.99.55,6.48.52,9.36,2.04,1.06,6.68.55,9.62.52,1.04,1.99.55,6.48.52,9.36,2.28.77,6.33.28,9.1.26.26.21.07.09.52.26.79,2.35.28,6.51.26,9.36,2.35.79,6.51.28,9.36.26.27.21.07.09.52.26.79,2.35.28,6.51.26,9.36,7.06-.02,11.67.76,18.71.78.77,2.28.28,6.32.26,9.1,2.04,1.06,6.68.55,9.62.52,1.04,1.99.55,6.48.52,9.36,2.09,1.09,6.88.55,9.88.52,1.52,1.29,7.07.52,9.62.52h25.99c34.02,0,68.54-.23,102.14-.26,1.21-1.99.82-6.43.78-9.62-.26-.09-.52-.17-.78-.26-2.02-1.25-8.9.21-10.92.26-9.61-.09-19.23-.17-28.85-.26h-97.72c-2.53-.82-5.99-.78-9.62-.78v-8.84c-2.23-1.1-6.49-.81-9.88-.78-.77-2.28-.28-6.32-.26-9.1-2.04-1.06-6.68-.55-9.62-.52-1.04-1.99-.55-6.49-.52-9.36-2.04-1.06-6.68-.55-9.62-.52-1.06-2.04-.55-6.68-.52-9.62-3.11.03-6.94.27-9.62-.26-.79-2.35-.28-6.51-.26-9.36-2.35-.79-6.51-.28-9.36-.26-.27-.21-.07-.09-.52-.26-.79-2.35-.28-6.51-.26-9.36-7.06.02-11.67-.76-18.71-.78-.77-2.28-.28-6.33-.26-9.1-2.04-1.06-6.68-.55-9.62-.52-1.04-1.99-.55-6.48-.52-9.36-2.04-1.06-6.68-.55-9.62-.52-.79-2.35-.28-6.51-.26-9.36-2.35-.79-6.51-.28-9.36-.26-.26-.21-.07-.09-.52-.26-.79-2.35-.28-6.51-.26-9.36-3.2-1.05-10.14-.26-14.03-.26h-469.39c-.79,2.35-.28,6.51-.26,9.36h-.52c-1.15.73-7.17.29-9.1.26-1.04,1.99-.55,6.49-.52,9.36-2.28.77-6.32.28-9.1.26-1.58,1.73-1.1,6.33-1.04,9.62h0Z"/>
</svg>